<svg xmlns="http://www.w3.org/2000/svg" viewBox="0 0 24 24"><path d="m18.7 14-.6.2L17 14C15 11.6 6.5 9.5 6.5 9.5l-3 6c-.3 1.5.8 2.8 2.1 3h0a7 7 0 0 0 5.7 3.9 8 8 0 0 0 5.9-4c1.3-.2 2.6-2.1 2.3-3.5q-.2-1-.8-.9" fill="#fca" stroke-width=".36000000000000004" stroke-linecap="round" stroke-linejoin="round" stroke="#000"/><path d="M10.3 19.7H12" fill="none" stroke-width=".38" stroke-linecap="round" stroke-linejoin="round" stroke="#000"/><path d="M9.5 15.2s-.7-1.5-2.3-1c-1.7.6-.3 2-.3 2" fill="none" stroke-width=".42000000000000004" stroke-linecap="round" stroke-linejoin="round" stroke="#000"/><path d="M10 13.8s-1.5-1.5-4.6-.7" fill="none" stroke-width=".66" stroke-linecap="round" stroke-linejoin="round" stroke="#000"/><path d="M8.1 14.2q-1 .1-1 1.1a1.1 1.1 0 0 0 2 .6l-.5-.4.7-.2c0 .2-.2-1-1.2-1"/><path d="M12.8 15.2s.8-1.5 2.4-1 .3 2 .3 2" fill="none" stroke-width=".42000000000000004" stroke-linecap="round" stroke-linejoin="round" stroke="#000"/><path d="M14.1 14.2q-1 .1-1.1 1.1a1.1 1.1 0 0 0 2 .6l-.5-.4.7-.2c.1.2-.2-1-1-1"/><path d="M14.1 14q-2.2.3-2.1 1.8 0 1.7 1.9 2.2c1.3.1 2.6-.6 3-1.2.8-.9.7-2 .4-2.4s-1.8-.7-3.2-.4" fill="none" stroke-width=".4" stroke-linecap="round" stroke-linejoin="round" stroke="#000"/><path d="M8 14q2.2.3 2.1 1.8 0 1.7-1.8 2.2a4 4 0 0 1-3.1-1.2c-.7-.9-.6-2-.3-2.4s1.7-.7 3.2-.4" fill="none" stroke-width=".4" stroke-linecap="round" stroke-linejoin="round" stroke="#000506"/><path d="M10.2 16.6a2 2 0 0 0 1.7 0" fill="none" stroke-width=".4" stroke-linecap="round" stroke-linejoin="round" stroke="#000"/><path d="M16.2 2.6C15 2.2 12.5 1 9 2S5.4 4 4.5 6.4C1.3 7 1 8.5.4 10.4c-.8 2 .2 4.7 1.3 5-.7 1.5 1.9 4.2 3.3 4.2 1 0 .4 1.4 1.8 1.3.6 1 1.4 1.1 2.6 1.2 0 0-2.5-1-3.6-3.4 0 0-2.3-.5-2.3-2.7 3.8.2 3.6-4.7 3.4-5.8 1 2.5 5.6.9 4.7 3.2s6.2 1 4.5 4.2c0 0 2.3.7 2.6-3.5 2.2 0 .5 4-1.4 4.4-1 2-4.3 4-3.2 3.1 1.2-.4 2.5-.3 2.8-1.3q1.5-.1 2.1-2c4.3-2.5 3.6-6.8 2.1-6.3 1.2 1.1 2.5-.2 3-.7-2.2.1-2.2-5-4.3-5.4s-2.2-3-3.6-3.3" fill="#010204"/></svg>
